<svg width="22" height="22" viewBox="0 0 22 22" fill="none" xmlns="http://www.w3.org/2000/svg">
<g clip-path="url(#clip0_3665_3994)">
<path d="M9.625 0C11.1418 0 12.375 0.923828 12.375 2.0625C12.375 2.50937 12.1859 2.92188 11.8594 3.26133C11.5758 3.55781 11.3438 3.91875 11.3438 4.33125C11.3438 4.97578 11.868 5.5 12.5125 5.5H14.4375C15.5762 5.5 16.5 6.42383 16.5 7.5625V9.4875C16.5 10.132 17.0242 10.6562 17.6688 10.6562C18.077 10.6562 18.4422 10.4242 18.7387 10.1406C19.0781 9.81836 19.4906 9.625 19.9375 9.625C21.0762 9.625 22 10.8582 22 12.375C22 13.8918 21.0762 15.125 19.9375 15.125C19.4906 15.125 19.0738 14.9359 18.7387 14.6094C18.4422 14.3258 18.0813 14.0938 17.6688 14.0938C17.0242 14.0938 16.5 14.618 16.5 15.2625V19.9375C16.5 21.0762 15.5762 22 14.4375 22H11.9969C11.4469 22 11 21.5531 11 21.0031C11 20.6078 11.2492 20.2598 11.5672 20.0234C12.0656 19.6496 12.375 19.134 12.375 18.5625C12.375 17.4238 11.1418 16.5 9.625 16.5C8.1082 16.5 6.875 17.4238 6.875 18.5625C6.875 19.134 7.18438 19.6496 7.68281 20.0234C8.00078 20.2598 8.25 20.6035 8.25 21.0031C8.25 21.5531 7.80313 22 7.25313 22H2.0625C0.923828 22 0 21.0762 0 19.9375V14.7469C0 14.1969 0.446875 13.75 0.996875 13.75C1.39219 13.75 1.74023 13.9992 1.97656 14.3172C2.35039 14.8156 2.86602 15.125 3.4375 15.125C4.57617 15.125 5.5 13.8918 5.5 12.375C5.5 10.8582 4.57617 9.625 3.4375 9.625C2.86602 9.625 2.35039 9.93438 1.97656 10.4328C1.74023 10.7508 1.39648 11 0.996875 11C0.446875 11 0 10.5531 0 10.0031V7.5625C0 6.42383 0.923828 5.5 2.0625 5.5H6.7375C7.38203 5.5 7.90625 4.97578 7.90625 4.33125C7.90625 3.92305 7.67422 3.55781 7.39062 3.26133C7.06836 2.92188 6.875 2.50937 6.875 2.0625C6.875 0.923828 8.1082 0 9.625 0Z" fill="#2272B1"/>
</g>
<defs>
<clipPath id="clip0_3665_3994">
<rect width="22" height="22" fill="white"/>
</clipPath>
</defs>
</svg>
