<svg width="22" height="22" viewBox="0 0 22 22" fill="none" xmlns="http://www.w3.org/2000/svg">
<mask id="mask0_3725_17262" style="mask-type:luminance" maskUnits="userSpaceOnUse" x="2" y="0" width="18" height="22">
<path d="M20 0H2V22H20V0Z" fill="white"/>
</mask>
<g mask="url(#mask0_3725_17262)">
<path d="M12.9688 0C13.0433 0 13.1149 0.0289939 13.1676 0.0805664C13.2203 0.132139 13.25 0.202066 13.25 0.275V6.48721C13.2501 6.70583 13.3391 6.91591 13.4972 7.0705C13.6554 7.22506 13.8701 7.31221 14.0938 7.31221H19.1562C19.2308 7.31221 19.3024 7.3412 19.3551 7.39277C19.4077 7.44432 19.4375 7.5144 19.4375 7.58721V18.425C19.4375 19.2272 19.1114 19.9965 18.5311 20.5637C17.9509 21.1311 17.1642 21.45 16.3438 21.45H5.09375C4.27323 21.45 3.48656 21.1311 2.90637 20.5637C2.32618 19.9965 2 19.2272 2 18.425V3.025C2 2.22272 2.32618 1.45353 2.90637 0.88623C3.48656 0.318933 4.27323 0 5.09375 0H12.9688ZM7.34375 16.5C7.11998 16.5 6.90543 16.587 6.7472 16.7417C6.58895 16.8964 6.5 17.1062 6.5 17.325C6.5 17.5438 6.58895 17.7536 6.7472 17.9083C6.90543 18.063 7.11998 18.15 7.34375 18.15H14.0938C14.3175 18.15 14.5321 18.063 14.6903 17.9083C14.8485 17.7536 14.9375 17.5438 14.9375 17.325C14.9375 17.1062 14.8485 16.8964 14.6903 16.7417C14.5321 16.587 14.3175 16.5 14.0938 16.5H7.34375ZM7.34375 13.2C7.11998 13.2 6.90543 13.287 6.7472 13.4417C6.58895 13.5964 6.5 13.8062 6.5 14.025C6.5 14.2438 6.58895 14.4536 6.7472 14.6083C6.90543 14.763 7.11998 14.85 7.34375 14.85H14.0938C14.3175 14.85 14.5321 14.763 14.6903 14.6083C14.8485 14.4536 14.9375 14.2438 14.9375 14.025C14.9375 13.8062 14.8485 13.5964 14.6903 13.4417C14.5321 13.287 14.3175 13.2 14.0938 13.2H7.34375ZM7.34375 9.9C7.11998 9.9 6.90543 9.98698 6.7472 10.1417C6.58895 10.2964 6.5 10.5062 6.5 10.725C6.5 10.9438 6.58895 11.1536 6.7472 11.3083C6.90543 11.463 7.11998 11.55 7.34375 11.55H14.0938C14.3175 11.55 14.5321 11.463 14.6903 11.3083C14.8485 11.1536 14.9375 10.9438 14.9375 10.725C14.9375 10.5062 14.8485 10.2964 14.6903 10.1417C14.5321 9.98698 14.3175 9.9 14.0938 9.9H7.34375Z" fill="#2272B1"/>
<path d="M14.9375 0.254838C14.9375 0.0524385 15.1546 -0.0762613 15.3155 0.0502387C15.452 0.158039 15.5731 0.283439 15.6789 0.426439L19.0685 5.04314C19.145 5.14874 19.0618 5.28514 18.929 5.28514H15.2188C15.1442 5.28514 15.0726 5.25616 15.0199 5.2046C14.9671 5.15302 14.9375 5.08308 14.9375 5.01014V0.254838Z" fill="#2272B1"/>
</g>
</svg>
